<?xml version="1.0" standalone="no"?>
<!DOCTYPE svg PUBLIC "-//W3C//DTD SVG 20010904//EN"
 "http://www.w3.org/TR/2001/REC-SVG-20010904/DTD/svg10.dtd">
<svg version="1.0" xmlns="http://www.w3.org/2000/svg"
 width="512.000000pt" height="512.000000pt" viewBox="0 0 512.000000 512.000000"
 preserveAspectRatio="xMidYMid meet">

<g transform="translate(0.000000,512.000000) scale(0.100000,-0.100000)"
fill="#000000" stroke="none">
<path d="M2215 5094 c-153 -20 -286 -52 -445 -104 -270 -89 -320 -121 -320
-205 0 -63 24 -89 124 -137 136 -63 140 -63 386 56 113 54 282 132 375 173
162 70 215 105 215 138 0 28 -25 67 -51 81 -35 17 -147 17 -284 -2z"/>
<path d="M3705 4712 c-169 -64 -244 -115 -266 -180 -15 -46 -14 -89 11 -300
11 -97 27 -255 35 -349 8 -104 20 -184 29 -200 23 -46 63 -76 231 -178 88 -54
246 -153 350 -220 236 -152 248 -158 310 -158 62 0 74 6 308 156 125 80 193
130 203 148 28 55 18 96 -60 254 -170 343 -403 633 -697 869 -188 150 -223
169 -323 173 -61 3 -93 -1 -131 -15z"/>
<path d="M1575 3599 c-64 -12 -84 -22 -262 -132 -291 -181 -465 -295 -504
-332 -21 -19 -50 -61 -66 -93 l-28 -57 0 -425 c0 -466 -2 -450 63 -544 28 -41
216 -169 537 -366 228 -140 282 -158 390 -125 27 8 197 96 379 197 371 206
418 241 455 341 20 56 21 74 21 497 0 423 -1 441 -21 497 -29 78 -97 143 -224
213 -55 30 -104 57 -110 59 -5 2 -106 58 -224 124 -118 66 -228 125 -245 132
-43 17 -114 24 -161 14z"/>
<path d="M4325 1976 c-16 -7 -95 -56 -175 -108 -80 -52 -235 -150 -345 -217
-255 -158 -250 -154 -281 -206 -22 -39 -27 -66 -44 -253 -11 -115 -28 -281
-39 -370 -24 -203 -19 -236 48 -301 35 -34 71 -56 141 -85 178 -72 256 -67
397 30 340 234 635 579 828 970 91 184 96 231 31 286 -31 26 -377 243 -409
256 -37 16 -114 15 -152 -2z"/>
<path d="M1640 502 c-114 -47 -161 -74 -176 -104 -37 -71 -11 -143 63 -178
237 -112 646 -210 874 -210 103 0 139 23 139 90 0 46 -28 67 -175 130 -77 34
-245 111 -372 172 -128 60 -250 112 -270 114 -23 2 -56 -3 -83 -14z"/>
</g>
</svg>
