<?xml version="1.0" standalone="no"?>
<!DOCTYPE svg PUBLIC "-//W3C//DTD SVG 20010904//EN"
 "http://www.w3.org/TR/2001/REC-SVG-20010904/DTD/svg10.dtd">
<svg version="1.0" xmlns="http://www.w3.org/2000/svg"
 width="512.000000pt" height="512.000000pt" viewBox="0 0 512.000000 512.000000"
 preserveAspectRatio="xMidYMid meet">

<g transform="translate(0.000000,512.000000) scale(0.100000,-0.100000)"
fill="#000000" stroke="none">
<path d="M2644 4549 c-101 -9 -280 -43 -325 -62 l-29 -12 235 -170 235 -170
-3 -265 -2 -264 -285 -208 c-157 -114 -302 -220 -322 -234 l-37 -26 -183 61
c-289 96 -311 105 -320 132 -4 13 -46 145 -94 292 l-86 268 -21 -18 c-12 -10
-1 7 24 37 25 30 49 61 54 69 10 17 -490 -424 -561 -495 -28 -28 -64 -68 -79
-88 -20 -26 -35 -36 -55 -36 -21 0 -40 -13 -77 -53 -93 -102 -153 -256 -153
-393 0 -61 3 -73 23 -92 15 -14 36 -22 58 -22 50 0 75 31 84 102 5 49 10 59
28 63 77 16 191 34 195 30 4 -4 -81 -367 -139 -597 -8 -30 -15 -38 -33 -38
-37 0 -67 -42 -83 -117 -58 -275 -129 -749 -163 -1084 -23 -228 -21 -248 32
-271 23 -11 28 -18 24 -38 -3 -14 -8 -85 -12 -159 l-6 -133 159 7 159 7 12
-26 c21 -47 46 -51 225 -37 385 30 989 119 1229 182 40 10 68 41 68 74 0 18
27 27 278 89 152 38 282 71 288 73 8 3 7 -20 -3 -79 -23 -139 -15 -128 -81
-128 -48 0 -62 -4 -80 -23 -30 -32 -29 -87 1 -115 21 -20 34 -22 133 -22 65 0
134 6 169 15 90 23 197 79 260 136 45 41 55 57 55 83 0 26 12 43 61 91 33 33
161 186 282 340 122 154 253 316 292 360 112 128 151 177 184 233 17 29 31 55
31 57 0 3 -162 5 -359 5 l-360 0 -156 215 -156 214 121 373 c67 205 124 376
128 380 4 4 117 43 252 87 l244 80 121 -87 c66 -47 189 -137 274 -199 85 -62
155 -112 156 -110 1 1 -2 49 -6 107 -21 292 -123 585 -289 833 -39 58 -74 108
-79 111 -4 3 -49 -124 -100 -282 -51 -158 -98 -292 -104 -299 -7 -6 -119 -46
-250 -88 l-239 -76 -36 25 c-21 14 -165 120 -322 234 l-285 208 -2 264 -3 265
235 170 235 170 -29 12 c-49 21 -221 52 -341 63 -128 11 -164 11 -296 -1z
m-915 -1365 c203 -62 361 -115 366 -123 2 -5 59 -176 126 -381 l121 -372 -33
-47 c-18 -25 -48 -66 -68 -91 -20 -24 -73 -96 -119 -160 l-84 -115 -374 -5
-374 -5 -59 115 c-120 233 -192 512 -191 741 l1 84 272 197 c150 109 278 198
286 198 7 0 66 -16 130 -36z m-672 -156 c-3 -8 -6 -5 -6 6 -1 11 2 17 5 13 3
-3 4 -12 1 -19z m-10 -105 c-3 -10 -5 -2 -5 17 0 19 2 27 5 18 2 -10 2 -26 0
-35z m2305 -868 l156 -214 -104 -312 c-57 -172 -111 -339 -120 -371 -16 -55
-19 -59 -57 -69 -176 -47 -475 -63 -667 -35 -133 20 -242 45 -235 55 2 4 -48
167 -111 361 -62 195 -114 358 -114 363 0 5 42 67 93 138 50 70 119 167 152
213 l60 85 396 1 396 0 155 -215z m-1797 -495 c27 -27 47 -50 44 -50 -3 0 -27
23 -54 50 -27 28 -47 50 -44 50 3 0 27 -22 54 -50z m126 -117 c13 -16 12 -17
-3 -4 -10 7 -18 15 -18 17 0 8 8 3 21 -13z"/>
</g>
</svg>
